<?xml version="1.0" encoding="UTF-8"?>
<svg width="94px" height="94px" viewBox="0 0 94 94" version="1.1" xmlns="http://www.w3.org/2000/svg" xmlns:xlink="http://www.w3.org/1999/xlink">
    <title>通用压缩包样式_slice</title>
    <g id="页面-1" stroke="none" stroke-width="1" fill="none" fill-rule="evenodd">
        <g id="画板" transform="translate(-55.000000, -1234.000000)">
            <g id="通用压缩包样式" transform="translate(68.000000, 1239.000000)">
                <path d="M6,0 L51.437198,0 L51.437198,0 L68,21.3728059 L68,78 C68,81.3137085 65.3137085,84 62,84 L6,84 C2.6862915,84 4.05812251e-16,81.3137085 0,78 L0,6 C-4.05812251e-16,2.6862915 2.6862915,6.08718376e-16 6,0 Z" id="矩形" fill="#CAE7FF"></path>
                <g id="编组" transform="translate(17.000000, 24.000000)" fill-rule="nonzero">
                    <path d="M2.25,0 L20.25,0 L29.25,9 L29.25,33.75 C29.25,34.9926407 28.2426407,36 27,36 L2.25,36 C1.00735931,36 0,34.9926407 0,33.75 L0,2.25 C0,1.00735931 1.00735931,0 2.25,0 Z" id="路径" fill="#0289FF"></path>
                    <path d="M17.1,22.1222813 L17.1,27.0109688 C17.1,27.33525 16.970625,27.6463125 16.741125,27.87525 C16.5113525,28.1045115 16.2000237,28.2332813 15.8754375,28.2332813 L13.3745625,28.2332813 C13.0500288,28.2332813 12.7387282,28.1046374 12.508875,27.8755313 C12.2790916,27.6463839 12.15,27.3352008 12.15,27.0106875 L12.15,22.1222813 L17.1,22.1222813 L17.1,22.1222813 Z M15.8754375,24.9229687 L13.3745625,24.9229687 L13.3745625,27.3777187 L15.8754375,27.3777187 L15.8754375,24.9229687 Z M17.0589375,17.2335938 L17.0589375,19.6880625 L14.5996875,19.6880625 L14.5996875,17.2333125 L17.0589375,17.2333125 L17.0589375,17.2335938 Z M14.6300625,0 L14.6300625,2.475 L17.1,2.475 L17.1,4.95 L14.6300625,4.95 L14.6300625,7.241625 L17.1,7.241625 L17.1,9.716625 L14.6300625,9.716625 L14.6300625,12.16125 L17.1,12.16125 L17.1,14.605875 L14.6300625,14.605875 L14.6300625,17.0502187 L12.15,17.0502187 L12.15,14.6055937 L14.6199375,14.6055937 L14.6199375,12.16125 L12.15,12.16125 L12.15,9.71690625 L14.6199375,9.71690625 L14.6199375,7.24190625 L12.15,7.24190625 L12.15,4.76690625 L14.6199375,4.76690625 L14.6199375,2.475 L12.15,2.475 L12.15,0 L14.6300625,0 Z" id="形状" fill="#FFFFFF"></path>
                    <path d="M20.25,0 L29.25,9 L22.5,9 C21.2573593,9 20.25,7.99264069 20.25,6.75 L20.25,0 Z" id="路径" fill="#6ABAFF"></path>
                </g>
            </g>
        </g>
    </g>
</svg>